<svg width="390" height="397" viewBox="0 0 390 397" fill="none" xmlns="http://www.w3.org/2000/svg">
    <circle opacity="0.2" cx="199.5" cy="66.5" r="271.5" fill="#F8A435"/>
    <circle opacity="0.2" cx="418" cy="66" r="196" fill="#F79008"/>
    <g clip-path="url(#clip0_0_1)">
    <path d="M347.598 301.862C347.651 335.898 336.373 368.981 315.542 395.891H72.0551C51.2252 368.981 39.9466 335.897 39.9999 301.862C39.9999 216.884 108.86 148 193.802 148C278.744 148 347.598 216.884 347.598 301.862Z" fill="white"/>
    <path opacity="0.1" d="M347.598 301.862C347.651 335.898 336.373 368.981 315.542 395.891H72.0551C51.2252 368.981 39.9466 335.897 39.9999 301.862C39.9999 216.884 108.86 148 193.802 148C278.744 148 347.598 216.884 347.598 301.862Z" fill="#F8A435"/>
    <path d="M350.025 149.968H228.009C216.108 149.968 206.46 159.62 206.46 171.526V171.526C206.46 183.433 216.108 193.085 228.009 193.085H350.025C361.926 193.085 371.574 183.433 371.574 171.526V171.526C371.574 159.62 361.926 149.968 350.025 149.968Z" fill="white"/>
    <path d="M350.025 193.51H228.009C222.199 193.483 216.636 191.155 212.537 187.035C208.439 182.915 206.138 177.339 206.138 171.526C206.138 165.713 208.439 160.137 212.537 156.017C216.636 151.898 222.199 149.569 228.009 149.542H350.025C352.92 149.529 355.788 150.087 358.466 151.186C361.144 152.285 363.579 153.902 365.63 155.944C367.682 157.987 369.31 160.415 370.42 163.089C371.531 165.763 372.103 168.63 372.103 171.526C372.103 174.422 371.531 177.289 370.42 179.963C369.31 182.637 367.682 185.065 365.63 187.108C363.579 189.15 361.144 190.768 358.466 191.866C355.788 192.965 352.92 193.524 350.025 193.51ZM228.009 150.393C222.407 150.393 217.034 152.62 213.073 156.583C209.112 160.546 206.886 165.921 206.886 171.525C206.886 177.13 209.112 182.505 213.073 186.468C217.034 190.431 222.407 192.658 228.009 192.658H350.025C355.627 192.658 361 190.431 364.961 186.468C368.923 182.505 371.148 177.13 371.148 171.525C371.148 165.921 368.923 160.546 364.961 156.583C361 152.62 355.627 150.393 350.025 150.393H228.009Z" fill="#474646"/>
    <path d="M128.048 198.938C128.048 198.938 126.735 214.496 123.132 220.085C112.759 236.175 109.514 254.425 119.443 264.166C129.372 273.906 193.779 275.18 199.048 253.274C203.485 234.832 194.704 232.684 192.83 217.372C191.982 210.444 189.569 195.905 189.569 195.905" fill="#474646"/>
    <path d="M183.006 249.522C182.894 249.508 181.66 269.992 157.874 268.206C141.406 266.972 135.535 249.492 135.155 249.492C136.931 249.114 139.921 248.566 140.709 248.145C143.303 246.751 146.51 245.3 147.346 240.263C147.83 237.361 147.011 222.505 147.263 219.566L172.54 225.21C172.186 231.414 169.715 245.798 178.379 248.344C179.822 248.768 181.375 249.154 183.006 249.522Z" fill="#E98862"/>
    <path opacity="0.5" d="M172.896 242.468C172.5 241.192 172.245 239.875 172.136 238.543C171.858 235.504 171.913 232.442 172.301 229.415C167.164 228.721 162.324 226.599 158.332 223.291C157.862 225.026 155.281 232.603 155.996 234.251C157.346 237.364 163.693 242.468 172.896 242.468Z" fill="#474646"/>
    <path d="M169.296 236.084C159.315 236.872 146.493 232.655 144.058 219.333L141.86 207.312C139.425 193.99 144.444 181.91 156.983 179.616C169.521 177.322 180.867 186.407 183.303 199.729L184.275 205.052C185.21 210.163 187.105 234.678 169.296 236.084Z" fill="#E98862"/>
    <path d="M173.371 217.658L173.395 217.654C173.903 217.557 174.405 217.433 174.9 217.281C175.638 217.048 176.604 216.662 176.483 215.996C176.344 215.237 172.768 207.427 172.361 206.539C172.324 206.464 172.259 206.407 172.18 206.379C172.102 206.351 172.015 206.355 171.939 206.39C171.864 206.425 171.804 206.488 171.774 206.566C171.743 206.643 171.744 206.73 171.777 206.807C173.302 210.133 175.757 215.601 175.85 216.112C175.766 216.348 174.54 216.789 173.28 217.021C173.199 217.037 173.127 217.083 173.079 217.15C173.031 217.218 173.011 217.301 173.022 217.383C173.034 217.464 173.077 217.539 173.142 217.59C173.206 217.641 173.288 217.665 173.371 217.658Z" fill="#474646"/>
    <path d="M171.481 223.392C173.526 223.139 175.482 222.409 177.193 221.26C177.264 221.214 177.315 221.142 177.333 221.058C177.351 220.975 177.335 220.888 177.289 220.816C177.243 220.744 177.171 220.694 177.087 220.676C177.004 220.658 176.917 220.673 176.845 220.719C173.144 223.1 169.478 223.466 166.244 221.778C166.179 221.742 166.111 221.71 166.042 221.682C165.962 221.652 165.874 221.656 165.797 221.692C165.719 221.727 165.659 221.793 165.63 221.873C165.6 221.953 165.604 222.041 165.64 222.119C165.675 222.196 165.741 222.256 165.821 222.286C165.846 222.296 165.888 222.319 165.947 222.35C167.647 223.24 169.574 223.603 171.481 223.392Z" fill="#474646"/>
    <path d="M131.815 211.435L143.055 209.445C151.578 206.055 154.24 191.346 154.24 191.346C154.24 191.346 164.506 201.479 189.569 195.906C189.569 195.906 184.765 160.957 147.728 170.883C135.785 174.083 127.155 186.05 128.122 202.122C128.8 213.383 131.815 211.435 131.815 211.435Z" fill="#474646"/>
    <path d="M145.578 223.249C141.768 223.947 137.933 220.434 137.236 216.622C136.539 212.81 139.244 210.142 143.055 209.445L145.485 211.64L148.854 222.65L145.578 223.249Z" fill="#E98862"/>
    <path d="M175.163 200.412C176.124 199.757 177.242 199.368 178.402 199.285C178.985 199.24 179.571 199.283 180.142 199.412C180.717 199.54 181.274 199.74 181.8 200.007L181.816 200.015C181.874 200.041 181.94 200.044 182 200.022C182.06 200 182.11 199.956 182.138 199.899C182.166 199.842 182.171 199.776 182.151 199.715C182.132 199.654 182.089 199.603 182.033 199.573C181.477 199.266 180.884 199.031 180.269 198.872C179.649 198.71 179.009 198.642 178.369 198.67C177.073 198.719 175.813 199.115 174.722 199.817C174.682 199.843 174.647 199.878 174.619 199.918C174.592 199.958 174.573 200.003 174.563 200.051C174.553 200.098 174.553 200.147 174.562 200.195C174.571 200.242 174.589 200.288 174.616 200.328C174.642 200.369 174.677 200.404 174.717 200.431C174.757 200.459 174.802 200.478 174.85 200.488C174.897 200.498 174.946 200.498 174.994 200.489C175.041 200.48 175.087 200.461 175.127 200.435L175.136 200.429L175.163 200.412Z" fill="#474646"/>
    <path d="M164.907 201.645C163.639 201.369 162.32 201.439 161.088 201.847C160.479 202.045 159.903 202.333 159.379 202.701C158.858 203.065 158.385 203.493 157.971 203.975C157.949 203.999 157.931 204.026 157.92 204.056C157.908 204.087 157.903 204.119 157.904 204.151C157.905 204.217 157.933 204.278 157.98 204.323C158.028 204.368 158.091 204.392 158.156 204.391C158.222 204.389 158.284 204.361 158.328 204.314L158.341 204.3C158.74 203.866 159.192 203.484 159.687 203.163C160.176 202.842 160.71 202.596 161.273 202.435C162.39 202.106 163.574 202.079 164.704 202.356L164.733 202.363C164.827 202.388 164.928 202.374 165.013 202.325C165.097 202.275 165.159 202.194 165.183 202.099C165.208 202.004 165.194 201.903 165.145 201.819C165.095 201.734 165.014 201.673 164.919 201.648L164.907 201.645Z" fill="#474646"/>
    <path d="M171.896 226.415C172.267 226.376 172.633 226.304 172.992 226.202C173.074 226.179 173.143 226.124 173.185 226.05C173.227 225.975 173.237 225.887 173.214 225.805C173.191 225.723 173.137 225.654 173.062 225.612C172.988 225.57 172.9 225.56 172.818 225.583C170.661 226.189 169.442 225.361 169.391 225.325C169.322 225.275 169.235 225.256 169.151 225.27C169.067 225.284 168.992 225.331 168.943 225.401C168.893 225.47 168.874 225.556 168.888 225.641C168.902 225.725 168.949 225.8 169.019 225.849C169.884 226.365 170.901 226.565 171.896 226.415Z" fill="#474646"/>
    <path d="M143.065 209.261C150.644 206.592 153.235 201.433 154.073 197.576C154.616 195.003 154.616 192.345 154.073 189.773L153.839 189.833C154.374 192.372 154.372 194.995 153.834 197.533C153.007 201.328 150.451 206.402 142.984 209.034L143.065 209.261Z" fill="#474646"/>
    <path opacity="0.1" d="M163.271 218.574C164.914 218.408 166.148 217.295 166.025 216.089C165.903 214.884 164.472 214.041 162.829 214.208C161.186 214.375 159.952 215.487 160.075 216.693C160.197 217.899 161.628 218.741 163.271 218.574Z" fill="#474646"/>
    <path opacity="0.1" d="M180.683 214.072C180.808 215.276 182.239 216.118 183.882 215.953C184.166 215.924 184.447 215.866 184.719 215.779C184.82 214.348 184.849 212.97 184.83 211.693C184.377 211.571 183.904 211.535 183.438 211.587C181.794 211.751 180.562 212.863 180.683 214.072Z" fill="#474646"/>
    <path d="M108.285 371.231L105.431 396.516H208.918L207.322 371.072L108.285 371.231Z" fill="#474646"/>
    <path d="M157.328 263.115C140.849 262.339 140.155 248.345 140.155 248.345C140.155 248.345 131.99 248.874 126.562 249.608C117.676 250.811 108.256 253.864 103.98 261.255C100.907 266.57 100.167 267.532 102.963 297.523C104.987 319.238 108.285 371.232 108.285 371.232L207.322 371.073C207.322 371.073 211.73 304.396 212.561 294.62C214.148 275.959 216.653 249.657 211.336 248.344C205.141 246.815 184.921 249.33 178.381 248.344C178.271 248.33 179.769 264.174 157.328 263.115Z" fill="#F8A435"/>
    <path d="M332.852 189.971C332.996 189.646 333.205 189.353 333.466 189.111C333.727 188.869 334.034 188.683 334.37 188.564C334.705 188.444 335.061 188.395 335.416 188.418C335.771 188.441 336.118 188.536 336.435 188.698C337.038 189.031 337.492 189.582 337.705 190.238C337.918 190.893 337.873 191.606 337.581 192.23L336.148 195.466L345.356 187.331C346.364 186.409 348.19 185.922 349.15 187.122C349.549 187.559 349.788 188.119 349.828 188.709C349.868 189.3 349.706 189.887 349.37 190.374C349.382 190.382 349.393 190.391 349.403 190.401C349.409 190.41 349.414 190.418 349.418 190.427L350.973 189.005C351.259 188.744 351.6 188.549 351.97 188.435C352.341 188.321 352.732 188.29 353.116 188.346C353.499 188.402 353.866 188.541 354.189 188.756C354.512 188.97 354.784 189.253 354.985 189.585C355.293 190.122 355.407 190.749 355.307 191.359C355.207 191.97 354.898 192.528 354.434 192.937L353.773 193.542C353.782 193.57 353.786 193.6 353.784 193.629C354.32 193.326 354.946 193.222 355.551 193.335C356.156 193.449 356.702 193.771 357.093 194.247C357.511 194.795 357.706 195.481 357.638 196.167C357.57 196.854 357.244 197.488 356.726 197.943L355.101 199.431C355.139 199.426 355.177 199.43 355.214 199.443C355.25 199.456 355.282 199.478 355.308 199.506C355.338 199.541 355.357 199.584 355.362 199.629C355.905 199.495 356.476 199.538 356.993 199.752C357.509 199.966 357.944 200.34 358.233 200.819C358.541 201.355 358.655 201.982 358.555 202.593C358.455 203.204 358.147 203.761 357.683 204.171L343.823 216.854C341.884 218.628 339.459 219.783 336.86 220.17C334.261 220.556 331.606 220.157 329.234 219.024L321.6 215.376L332.852 189.971Z" fill="#E98862"/>
    <g opacity="0.2">
    <path opacity="0.2" d="M340.299 198.473C340.342 198.519 340.401 198.547 340.464 198.55C340.528 198.553 340.59 198.531 340.637 198.489L349.383 190.743C349.407 190.722 349.426 190.696 349.44 190.667C349.454 190.639 349.462 190.608 349.464 190.576C349.466 190.545 349.462 190.513 349.451 190.483C349.441 190.453 349.425 190.425 349.404 190.401C349.383 190.377 349.357 190.358 349.329 190.344C349.3 190.33 349.269 190.322 349.237 190.32C349.206 190.318 349.174 190.323 349.144 190.333C349.114 190.343 349.086 190.359 349.062 190.38L340.313 198.127C340.29 198.148 340.27 198.174 340.257 198.202C340.243 198.231 340.235 198.262 340.233 198.294C340.231 198.325 340.235 198.357 340.246 198.387C340.256 198.417 340.272 198.445 340.293 198.469L340.299 198.473Z" fill="#474646"/>
    </g>
    <g opacity="0.2">
    <path opacity="0.2" d="M343.608 202.426C343.651 202.472 343.71 202.5 343.773 202.503C343.837 202.507 343.899 202.485 343.946 202.443L353.707 193.797C353.73 193.776 353.75 193.75 353.764 193.722C353.778 193.693 353.786 193.662 353.788 193.63C353.79 193.599 353.785 193.567 353.775 193.537C353.765 193.507 353.748 193.479 353.727 193.455C353.684 193.409 353.624 193.382 353.561 193.378C353.497 193.374 353.435 193.395 353.386 193.435L343.625 202.08C343.601 202.102 343.582 202.127 343.568 202.156C343.554 202.184 343.546 202.215 343.544 202.247C343.542 202.279 343.547 202.31 343.557 202.34C343.567 202.37 343.584 202.398 343.605 202.422L343.608 202.426Z" fill="#474646"/>
    </g>
    <g opacity="0.2">
    <path opacity="0.2" d="M347.166 206.728C347.209 206.775 347.269 206.803 347.332 206.806C347.395 206.809 347.457 206.787 347.505 206.745L355.291 199.849C355.339 199.806 355.368 199.746 355.372 199.682C355.376 199.618 355.354 199.555 355.312 199.507C355.269 199.459 355.209 199.43 355.145 199.426C355.081 199.422 355.018 199.444 354.97 199.487L347.184 206.383C347.16 206.404 347.141 206.429 347.127 206.458C347.113 206.487 347.105 206.518 347.103 206.549C347.101 206.581 347.105 206.613 347.116 206.643C347.126 206.673 347.142 206.7 347.163 206.724L347.166 206.728Z" fill="#474646"/>
    </g>
    <path d="M324.025 198.938L271.539 241.952L198.884 248.509C194.225 248.9 189.897 251.076 186.804 254.584C183.711 258.092 182.093 262.661 182.287 267.334C182.482 272.008 184.474 276.425 187.848 279.664C191.222 282.903 195.716 284.712 200.391 284.714C200.904 284.714 201.419 284.692 201.938 284.648L280.296 277.608C284.007 277.294 287.532 275.843 290.39 273.454L345.358 224.668L324.025 198.938Z" fill="#F8A435"/>
    <path d="M335.665 196.674L337.582 192.23C337.873 191.606 337.918 190.893 337.705 190.238C337.492 189.582 337.038 189.031 336.435 188.698C336.118 188.536 335.771 188.441 335.416 188.418C335.061 188.395 334.705 188.444 334.37 188.564C334.034 188.683 333.727 188.869 333.466 189.111C333.205 189.353 332.996 189.646 332.852 189.971" fill="#E98862"/>
    <path d="M198.633 330.023C198.58 330.71 198.269 331.351 197.761 331.817C197.253 332.283 196.587 332.538 195.898 332.53L193.696 332.557C193.727 332.579 193.753 332.607 193.771 332.641C193.789 332.675 193.798 332.712 193.798 332.75C193.799 332.797 193.785 332.842 193.758 332.879C194.252 333.142 194.649 333.555 194.891 334.059C195.133 334.564 195.208 335.132 195.103 335.682C194.974 336.287 194.641 336.83 194.159 337.218C193.677 337.606 193.076 337.817 192.457 337.813L173.679 338.016C171.051 338.047 168.474 337.291 166.279 335.845C164.084 334.4 162.371 332.331 161.36 329.905L158.096 322.092L168.09 319.965L168.329 317.472L183.418 310.663C183.742 310.517 184.093 310.438 184.449 310.431C184.804 310.425 185.158 310.491 185.487 310.626C185.816 310.76 186.115 310.961 186.364 311.215C186.613 311.469 186.808 311.771 186.937 312.102C187.164 312.753 187.136 313.466 186.858 314.097C186.58 314.728 186.073 315.23 185.439 315.501L182.212 316.956L194.496 317.039C195.864 317.023 197.549 317.878 197.464 319.408C197.471 320 197.277 320.578 196.914 321.045C196.55 321.513 196.039 321.843 195.463 321.983C195.463 321.998 195.466 322.008 195.467 322.024L195.46 322.051L197.566 322.029C197.954 322.025 198.339 322.106 198.691 322.269C199.044 322.431 199.357 322.67 199.606 322.968C199.855 323.266 200.035 323.615 200.132 323.991C200.23 324.367 200.243 324.76 200.17 325.142C200.043 325.747 199.711 326.289 199.229 326.677C198.748 327.065 198.148 327.274 197.53 327.27L196.629 327.283C196.617 327.307 196.602 327.329 196.585 327.351C197.186 327.485 197.72 327.826 198.094 328.314C198.469 328.803 198.659 329.408 198.633 330.023Z" fill="#E98862"/>
    <g opacity="0.2">
    <path opacity="0.2" d="M183.301 321.967C183.302 322.03 183.328 322.09 183.373 322.135C183.418 322.179 183.479 322.204 183.543 322.204L195.224 322.265C195.288 322.265 195.35 322.24 195.395 322.194C195.44 322.149 195.466 322.087 195.466 322.023C195.466 321.959 195.44 321.898 195.395 321.852C195.35 321.807 195.288 321.781 195.224 321.781L183.543 321.721C183.479 321.721 183.417 321.746 183.372 321.791C183.326 321.837 183.301 321.898 183.301 321.962V321.967Z" fill="#474646"/>
    </g>
    <g opacity="0.2">
    <path opacity="0.2" d="M183.132 327.12C183.133 327.184 183.159 327.244 183.204 327.288C183.249 327.333 183.31 327.358 183.373 327.358L196.41 327.426C196.474 327.426 196.535 327.4 196.581 327.355C196.626 327.31 196.651 327.248 196.651 327.184C196.649 327.121 196.623 327.06 196.578 327.015C196.534 326.97 196.473 326.944 196.41 326.942L183.373 326.875C183.309 326.875 183.248 326.9 183.203 326.945C183.157 326.991 183.132 327.052 183.132 327.116V327.12Z" fill="#474646"/>
    </g>
    <g opacity="0.2">
    <path opacity="0.2" d="M182.917 332.701C182.918 332.764 182.944 332.824 182.989 332.869C183.034 332.913 183.095 332.938 183.158 332.938L193.557 332.992C193.621 332.992 193.683 332.967 193.728 332.921C193.773 332.876 193.799 332.815 193.799 332.75C193.799 332.686 193.773 332.625 193.728 332.579C193.683 332.534 193.621 332.509 193.557 332.509L183.158 332.454C183.094 332.454 183.033 332.48 182.987 332.525C182.942 332.571 182.917 332.632 182.917 332.696V332.701Z" fill="#474646"/>
    </g>
    <path d="M172.709 343.608L94.0821 357.62C90.7788 358.497 87.2949 358.422 84.0324 357.404C80.7698 356.385 77.8616 354.465 75.6432 351.864C73.4248 349.263 71.9866 346.087 71.4946 342.704C71.0026 339.32 71.4768 335.866 72.8624 332.741L101.496 266.104C105.557 256.949 115.592 252.82 124.741 256.882C129.136 258.832 132.576 262.448 134.304 266.936C136.033 271.424 135.909 276.414 133.96 280.811L117.145 320.688L169.729 313.698L172.709 343.608Z" fill="#F8A435"/>
    <path d="M107.632 355.539C107.655 355.539 107.677 355.536 107.699 355.53L172.775 343.841C172.836 343.823 172.887 343.783 172.918 343.728C172.949 343.673 172.958 343.609 172.942 343.548L169.963 312.67C169.947 312.608 169.908 312.556 169.854 312.523C169.799 312.49 169.735 312.48 169.673 312.495L117.58 320.339L134.174 280.915C134.198 280.858 134.2 280.794 134.178 280.736C134.156 280.678 134.112 280.63 134.056 280.603C134 280.577 133.936 280.572 133.877 280.591C133.818 280.61 133.769 280.651 133.739 280.706L116.927 320.583C116.908 320.624 116.901 320.67 116.906 320.715C116.912 320.76 116.93 320.802 116.958 320.838C116.986 320.873 117.024 320.9 117.067 320.914C117.11 320.929 117.156 320.932 117.2 320.922L169.555 313.017L172.415 343.439L107.565 355.066C107.509 355.082 107.46 355.118 107.428 355.167C107.397 355.216 107.384 355.275 107.392 355.333C107.4 355.391 107.429 355.444 107.473 355.482C107.517 355.52 107.574 355.541 107.632 355.541V355.539Z" fill="#474646"/>
    <path d="M110.637 321.8C110.655 321.8 110.672 321.798 110.689 321.794L117.197 320.924C117.228 320.917 117.258 320.905 117.284 320.886C117.311 320.868 117.333 320.845 117.351 320.819C117.368 320.792 117.38 320.762 117.386 320.73C117.391 320.699 117.391 320.667 117.384 320.635C117.377 320.604 117.364 320.575 117.346 320.548C117.328 320.522 117.304 320.5 117.278 320.483C117.251 320.466 117.22 320.454 117.189 320.449C117.157 320.443 117.125 320.444 117.094 320.451L110.586 321.322C110.528 321.335 110.476 321.368 110.442 321.417C110.407 321.465 110.392 321.525 110.398 321.584C110.404 321.643 110.432 321.697 110.476 321.737C110.521 321.777 110.578 321.799 110.637 321.799V321.8Z" fill="#474646"/>
    <path d="M213.482 283.913C213.543 283.913 213.601 283.89 213.646 283.849C213.691 283.807 213.719 283.751 213.723 283.69L214.8 269.744C214.805 269.68 214.785 269.617 214.743 269.568C214.701 269.519 214.641 269.489 214.577 269.484C214.513 269.479 214.45 269.5 214.401 269.541C214.352 269.583 214.322 269.643 214.317 269.707L213.24 283.653C213.235 283.717 213.256 283.78 213.298 283.828C213.339 283.877 213.399 283.907 213.462 283.912C213.469 283.913 213.475 283.913 213.482 283.913Z" fill="#474646"/>
    <path d="M180.533 204.986C181.4 204.986 182.103 204.283 182.103 203.416C182.103 202.548 181.4 201.845 180.533 201.845C179.666 201.845 178.963 202.548 178.963 203.416C178.963 204.283 179.666 204.986 180.533 204.986Z" fill="#474646"/>
    <path d="M164.619 207.676C165.487 207.676 166.189 206.973 166.189 206.105C166.189 205.238 165.487 204.535 164.619 204.535C163.752 204.535 163.049 205.238 163.049 206.105C163.049 206.973 163.752 207.676 164.619 207.676Z" fill="#474646"/>
    <path d="M69.0598 397H318.538C318.666 397 318.789 396.949 318.88 396.858C318.97 396.768 319.021 396.645 319.021 396.516C319.021 396.388 318.97 396.265 318.88 396.174C318.789 396.084 318.666 396.033 318.538 396.033H69.0598C68.9316 396.033 68.8087 396.084 68.7181 396.174C68.6274 396.265 68.5765 396.388 68.5765 396.516C68.5765 396.645 68.6274 396.768 68.7181 396.858C68.8087 396.949 68.9316 397 69.0598 397Z" fill="#292A2E"/>
    </g>
    <defs>
    <clipPath id="clip0_0_1">
    <rect width="332" height="249" fill="white" transform="translate(40 148)"/>
    </clipPath>
    </defs>
    </svg>
    